<svg id="Layer_1" data-name="Layer 1" xmlns="http://www.w3.org/2000/svg" viewBox="0 0 161.95 144.06"><defs><style>.cls-1{fill:#fff;}.cls-2{fill:#f26522;}.cls-3{fill:#011e41;}.cls-4,.cls-6{fill:#24bbed;}.cls-4{fill-rule:evenodd;}.cls-5{fill:#00319c;}</style></defs><polygon class="cls-1" points="110.91 23.5 100.69 21.88 94.75 27.08 90.52 28.12 81.36 24.51 76.76 39.79 79.08 43.34 88.8 40.61 99.62 42.91 103.58 47.54 110.3 49.95 129.66 48.79 132.4 47.47 131.53 36.28 135.32 29.65 130.69 26.23 124.29 23 113.28 27.08 110.91 23.5"/><path class="cls-2" d="M361.45,358.12s-3.33-5.28-3.49-8.56a7.46,7.46,0,0,1,2.29-4.61l3.72-3.86a12.59,12.59,0,0,1,3.88,4.65s1.27,3,2.16,3.72c0,0,1.35,1-.87,2.13l1.46.37A18,18,0,0,1,361.45,358.12Z" transform="translate(-228.01 -311.03)"/><polygon class="cls-3" points="134.65 29.01 131.5 34.74 135.95 30.07 134.65 29.01"/><polygon class="cls-3" points="130.35 40.55 132.4 47.47 134.28 46.86 130.35 40.55"/><path class="cls-3" d="M302.81,352.3a10.9,10.9,0,0,1-2.9-8.89c1.95-7.21,6.12-7.72,6.12-7.72a6.71,6.71,0,0,1,4.08.16,15.94,15.94,0,0,0-1.39-.86s-.81-.81-3.73-1.17c0,0-4-.21-5.85,4.92,0,0-2.06,6.92-.42,11.41,0,0,2.55,6.43,8.37,4.21A5.11,5.11,0,0,1,302.81,352.3Z" transform="translate(-228.01 -311.03)"/><path class="cls-3" d="M318.53,339.15h0a3.13,3.13,0,0,1-.74-2.91s.4-3.56,3.61-4.35c0,0,5.38-1.68,7.25,1a5.84,5.84,0,0,0-1.62-1.93,9,9,0,0,0-8.63-.45C313.38,334.42,318.53,339.15,318.53,339.15Z" transform="translate(-228.01 -311.03)"/><path class="cls-3" d="M318.31,358.21s-3.54-2.88-2.11-5.7c0,0,.21-.77,1.72-1.23-4.81.44-3.26,5.28-3.26,5.28,2.15,5.42,8.1,5.37,8.1,5.37,8.17.2,8.79-3.25,8.79-3.25v-.1C331.09,358.8,324.6,361.78,318.31,358.21Z" transform="translate(-228.01 -311.03)"/><path class="cls-1" d="M365.69,345.72a1.93,1.93,0,1,1-1.84-2A1.93,1.93,0,0,1,365.69,345.72Z" transform="translate(-228.01 -311.03)"/><path class="cls-3" d="M365.08,345.7a1.31,1.31,0,1,1-1.25-1.37A1.32,1.32,0,0,1,365.08,345.7Z" transform="translate(-228.01 -311.03)"/><path class="cls-3" d="M350.17,356.55s-10,1.19-8.88-5.32a8.11,8.11,0,0,1,3.37-6.42s1.92-1.69,7.82,4.74c0,0-.9-2.35-6.67-6.46,0,0-2.17-1-2.54-.39a.22.22,0,0,1,0-.07c-1.09,1-3.27,3.11-3.76,4.33a11.86,11.86,0,0,0-.15,7S343.72,361.06,350.17,356.55Z" transform="translate(-228.01 -311.03)"/><path class="cls-3" d="M339,335a1.38,1.38,0,0,1-.05-.46s.73-6.23,6.37-6.29a7.15,7.15,0,0,1,6.87,3.46v.06s1.07-5.49-5.3-6.46a8.64,8.64,0,0,0-8.25,5.2s-1.41,1.49.12,4.13C338.83,334.74,338.9,334.87,339,335Z" transform="translate(-228.01 -311.03)"/><path class="cls-3" d="M343.84,367.24s-3,2.26-5.66.45a3.4,3.4,0,0,1-1.75-3.65,6,6,0,0,0,.95,6.09,4.1,4.1,0,0,0,5.26-.24,10.23,10.23,0,0,0,4-4.82c.05-.13.35-.88.48-1.27C346.12,365.2,344.79,366.85,343.84,367.24Z" transform="translate(-228.01 -311.03)"/><path class="cls-2" d="M306,335.52s-4.17.52-6.13,7.83a11.19,11.19,0,0,0,2.9,9s4,5.81,10.16-1.85c0,0,3.6-5.56.74-11.67A6.73,6.73,0,0,0,306,335.52Z" transform="translate(-228.01 -311.03)"/><path class="cls-2" d="M321.41,331.89s5.45-1.71,7.29,1c0,0,.83,1.58.38,2.51,0,0,2.91,2.62,3.18,5.74l.49,11.32-.63,4-.53,2.13s-6.75,3.35-13.28-.35c0,0-3.54-2.88-2.11-5.7,0,0,.29-1.07,2.67-1.44,0,0,2.88-.73,2.25-10.48,0,0-4-.88-3.32-4.35C317.8,336.24,318.2,332.68,321.41,331.89Z" transform="translate(-228.01 -311.03)"/><path class="cls-2" d="M338.93,334.53s.73-6.23,6.37-6.29a7.15,7.15,0,0,1,6.87,3.46l.14,2.33s4.79,1.52,6.71,3.53c0,0-6.06,8.07-5.63,12.49,0,0,.82,7.61,4.28,9.76a20.57,20.57,0,0,1-9.11,1.85s-3,4.86-4.72,5.58c0,0-3,2.26-5.66.45,0,0-4.23-2.19.14-6.71a9.25,9.25,0,0,1,1-7s4.4,7.06,10.85,2.55c0,0-10,1.19-8.88-5.32a8.11,8.11,0,0,1,3.37-6.42s1.92-1.69,7.82,4.74c0,0-.9-2.35-6.67-6.46,0,0-2.17-1-2.54-.39C343.27,342.7,338.72,335.83,338.93,334.53Z" transform="translate(-228.01 -311.03)"/><path class="cls-4" d="M277,311c2,3.92-2.92,5.11-1.78,10.7,4.33.16,2.81-5.52,7.13-5.35,2.46,4.31-1.56,8.86-5.35,9.81a57.78,57.78,0,0,0,4.46,11.59c1.44-5.82,1.81-17,8.92-14.27-3.19,9.93-7.89,18.84-6.24,31.21,7.64-6.08,1.16-30.87,16.05-26.75-.58,5.37-7.23,4.66-7.14,10.7,5.12.36,6-3.51,8.92-5.35,7,3.87-3.7,10.4-9.81,9.81.9,8.33-1.5,13.35-5.35,16.94,10.43-1.76,7.86-16.52,18.73-17.84.52,3.21-1,4.32-1.79,6.25,4.3.61,5.85-4.88,9.81-1.79-.94,4.41-5.13,5.58-9.81,6.24.66,3.21,7.61.12,8,3.57-1.41,5.89-10.41.94-12.48-.89-3.62,4.71-7.7,8.95-15.16,9.81-.34,3,1.54,3.8,2.67,5.35-3.38,1.51-9.47,2.56-13.37.89,1.22-2,4.44-2.1,5.35-4.46-5.06.18-11.5-1.66-15.16-5.35-3.56,2.83-14.25,4.79-14.27-2.67,3-2.08,6.38,2.76,9.81,0-1.38-4-8.4-2.31-9.81-6.25,11.44-6.48,17,12.54,28.53,8.92-9.33-6.74-26.07-10.74-25.86-24.07,6.43,1.9,6.62,10,13.38,11.59-.43-3.66-4.5-6.19-.89-8.92,7,3.74,4.31,17.09,15.16,16.94,2.11-2.09-.15-4.38,0-7.13-5.24-3.38-10.29-6.95-13.38-12.48-6.48.36-12.93-3.47-10.7-8.92,4.34-.48,4.18,3.55,7.14,4.46,2.12-2.51-4-8.6,0-10.7,6.11,5.48,6.49,16.69,14.26,20.51C278.61,334.66,262.51,316.52,277,311Z" transform="translate(-228.01 -311.03)"/><path class="cls-5" d="M229.79,424.74V371.81h6.85c9.29,0,14.18,3.53,14.18,14,0,4.9-1.08,7.71-4.82,10.95,0,0,5.4,2.45,5.4,13,0,7.78-2.74,14.62-12,15Zm7.78-45.23v14.12c1.44,0,5.76.22,5.76-7.06S239,379.51,237.57,379.51Zm0,21.25V417c1.44,0,5.76.57,5.76-8.14S239,400.76,237.57,400.76Z" transform="translate(-228.01 -311.03)"/><path class="cls-5" d="M254.21,424.74V371.81h7.27v52.93Z" transform="translate(-228.01 -311.03)"/><path class="cls-5" d="M276.68,416.39v-31H284v39.39h-7.27v-3.31c-.58.36-3.39,3.89-5.91,3.89-3.89,0-5.47-4.47-5.47-7.71V385.35h7.27v31.18c0,1.52.87,1.73,1.73,1.73C275.74,418.26,276.68,416.39,276.68,416.39Z" transform="translate(-228.01 -311.03)"/><path class="cls-5" d="M305.85,410.63v4.54s0,10.15-9.44,10.15S287.05,415,287.05,415V395.14s.07-10.37,9.43-10.37,9.37,10.16,9.37,10.16v11.45h-12V415s0,4,2.66,4,2.6-4,2.6-4v-4.32Zm-12-9.94h5.26v-5.55s.14-4-2.6-4-2.66,4-2.66,4Z" transform="translate(-228.01 -311.03)"/><path class="cls-6" d="M324,424.74l-4-22.32h-2.09v22.32h-7.78V371.81h7.78c9.22,0,13.25,5.33,13.25,15.27,0,5.25-1.36,10-4.32,12l5,25.64Zm-6.13-45.23v15.7c2.16,0,5.76-.28,5.76-7.85S320,379.51,317.87,379.51Z" transform="translate(-228.01 -311.03)"/><path class="cls-6" d="M352.51,410.63v4.54s0,10.15-9.43,10.15S333.72,415,333.72,415V395.14s.07-10.37,9.43-10.37,9.36,10.16,9.36,10.16v11.45h-12V415s0,4,2.66,4,2.59-4,2.59-4v-4.32Zm-12-9.94h5.25v-5.55s.15-4-2.59-4-2.66,4-2.66,4Z" transform="translate(-228.01 -311.03)"/><path class="cls-6" d="M373.9,410.63v4.54s0,10.15-9.43,10.15S355.11,415,355.11,415V395.14s.07-10.37,9.43-10.37,9.36,10.16,9.36,10.16v11.45h-12V415s0,4,2.66,4,2.59-4,2.59-4v-4.32Zm-12-9.94h5.25v-5.55s.15-4-2.59-4-2.66,4-2.66,4Z" transform="translate(-228.01 -311.03)"/><path class="cls-6" d="M378.22,424.74V391.9h-3.67v-6.55h3.67v-1.08c0-4.11,0-12.75,8.36-12.75a8.78,8.78,0,0,1,3.38.5v6.27a8,8,0,0,0-2.16-.29c-2.45,0-2.3,4.54-2.3,6.34v1h3.67v6.55H385.5v32.84Z" transform="translate(-228.01 -311.03)"/><path class="cls-2" d="M245,454l-1.48-4.42h-8.88L233.1,454H228l9.09-25h3.83l9.12,25Zm-5.83-17.62L236,445.5h6.21Z" transform="translate(-228.01 -311.03)"/><path class="cls-2" d="M268.44,455.08l-2.21-2.21a9,9,0,0,1-5.05,1.37,9.11,9.11,0,0,1-6.78-2.74c-2.52-2.52-2.45-5.65-2.45-10s-.07-7.44,2.45-10a9.11,9.11,0,0,1,6.78-2.74,9,9,0,0,1,6.73,2.74c2.53,2.53,2.5,5.65,2.5,10,0,3.75,0,6.52-1.55,8.84l2.14,2.14Zm-4.14-20.56a4,4,0,0,0-3.12-1.34,4.12,4.12,0,0,0-3.16,1.34c-.95,1.05-1.19,2.21-1.19,7s.24,6,1.19,7a4.15,4.15,0,0,0,3.16,1.33,2.76,2.76,0,0,0,1.61-.46l-2.17-2.14,2.59-2.56,1.86,1.86a16,16,0,0,0,.46-5C265.53,436.73,265.25,435.57,264.3,434.52Z" transform="translate(-228.01 -311.03)"/><path class="cls-2" d="M284.16,454.24c-5.12,0-9.19-3.47-9.19-8.77V429h4.87v16.25c0,2.88,1.69,4.6,4.32,4.6s4.35-1.72,4.35-4.6V429h4.85v16.43C293.36,450.77,289.29,454.24,284.16,454.24Z" transform="translate(-228.01 -311.03)"/><path class="cls-2" d="M313,454l-1.48-4.42h-8.88L301.14,454h-5.08l9.08-25H309l9.12,25Zm-5.83-17.62L304,445.5h6.21Z" transform="translate(-228.01 -311.03)"/><path class="cls-2" d="M328.62,433.39V454h-4.88V433.39h-6.53V429h17.94v4.35Z" transform="translate(-228.01 -311.03)"/><path class="cls-2" d="M339.11,454V429H344v25Z" transform="translate(-228.01 -311.03)"/><path class="cls-2" d="M358.17,454.24a9.13,9.13,0,0,1-6.74-2.74,7.19,7.19,0,0,1-2-3.75,46.19,46.19,0,0,1,0-12.43,7.11,7.11,0,0,1,2-3.75,9.13,9.13,0,0,1,6.74-2.74c4.8,0,8.35,2.81,9.19,7.9h-4.95c-.52-2.14-1.86-3.55-4.21-3.55a3.88,3.88,0,0,0-3.12,1.3c-1,1.09-1.23,2.21-1.23,7.06s.21,6,1.23,7a3.85,3.85,0,0,0,3.12,1.3c2.35,0,3.69-1.4,4.21-3.55h4.95C366.52,451.43,362.94,454.24,358.17,454.24Z" transform="translate(-228.01 -311.03)"/><path class="cls-2" d="M378.45,454.24c-3.79,0-6.67-.81-9.13-3.3l3.16-3.16a8.18,8.18,0,0,0,6,2.11c2.88,0,4.42-1.09,4.42-3.09a2.75,2.75,0,0,0-.77-2.1,3.65,3.65,0,0,0-2.21-.88l-3-.42a8.54,8.54,0,0,1-4.84-2.07,6.6,6.6,0,0,1-1.79-4.92c0-4.45,3.3-7.58,8.7-7.58,3.44,0,5.93.84,8.07,2.91L384,434.8a6.94,6.94,0,0,0-5.12-1.72c-2.6,0-3.86,1.44-3.86,3.16a2.4,2.4,0,0,0,.74,1.79,4.31,4.31,0,0,0,2.31,1l2.95.42a8.29,8.29,0,0,1,4.77,1.93,7,7,0,0,1,1.93,5.3C387.71,451.5,383.68,454.24,378.45,454.24Z" transform="translate(-228.01 -311.03)"/></svg>